<svg width="46" height="46" viewBox="0 0 46 46" fill="none" xmlns="http://www.w3.org/2000/svg">
<g filter="url(#filter0_d_9_13)">
<rect x="4" width="38" height="38" rx="10" fill="#999999"/>
<path d="M32.7969 10.9844H13.2031" stroke="#222222" stroke-width="2" stroke-linecap="round" stroke-linejoin="round"/>
<path d="M20.3282 16.3281V23.4531" stroke="#222222" stroke-width="2" stroke-linecap="round" stroke-linejoin="round"/>
<path d="M25.6719 16.3281V23.4531" stroke="#222222" stroke-width="2" stroke-linecap="round" stroke-linejoin="round"/>
<path d="M31.0156 10.9844V27.9062C31.0156 28.1425 30.9218 28.369 30.7547 28.536C30.5877 28.703 30.3612 28.7969 30.125 28.7969H15.875C15.6388 28.7969 15.4122 28.703 15.2452 28.536C15.0782 28.369 14.9843 28.1425 14.9843 27.9062V10.9844" stroke="#222222" stroke-width="2" stroke-linecap="round" stroke-linejoin="round"/>
<path d="M27.4531 10.9844V9.20313C27.4531 8.73071 27.2655 8.27764 26.9314 7.94359C26.5974 7.60954 26.1443 7.42188 25.6719 7.42188H20.3281C19.8557 7.42188 19.4026 7.60954 19.0686 7.94359C18.7345 8.27764 18.5469 8.73071 18.5469 9.20313V10.9844" stroke="#222222" stroke-width="2" stroke-linecap="round" stroke-linejoin="round"/>
</g>
<defs>
<filter id="filter0_d_9_13" x="0" y="0" width="46" height="46" filterUnits="userSpaceOnUse" color-interpolation-filters="sRGB">
<feFlood flood-opacity="0" result="BackgroundImageFix"/>
<feColorMatrix in="SourceAlpha" type="matrix" values="0 0 0 0 0 0 0 0 0 0 0 0 0 0 0 0 0 0 127 0" result="hardAlpha"/>
<feOffset dy="4"/>
<feGaussianBlur stdDeviation="2"/>
<feComposite in2="hardAlpha" operator="out"/>
<feColorMatrix type="matrix" values="0 0 0 0 0 0 0 0 0 0 0 0 0 0 0 0 0 0 0.25 0"/>
<feBlend mode="normal" in2="BackgroundImageFix" result="effect1_dropShadow_9_13"/>
<feBlend mode="normal" in="SourceGraphic" in2="effect1_dropShadow_9_13" result="shape"/>
</filter>
</defs>
</svg>
